<mxfile host="app.diagrams.net" modified="2024-03-22T19:07:08.960Z" agent="Mozilla/5.0 (Windows NT 10.0; Win64; x64) AppleWebKit/537.36 (KHTML, like Gecko) Chrome/122.0.0.0 Safari/537.36 Edg/122.0.0.0" etag="MzSlAVkOWOL9A7qeejeh" version="24.0.8" type="github">
  <diagram name="Página-1" id="faqiPDKyWiyBNLFLv6mD">
    <mxGraphModel dx="792" dy="449" grid="1" gridSize="10" guides="1" tooltips="1" connect="1" arrows="1" fold="1" page="1" pageScale="1" pageWidth="827" pageHeight="1169" math="0" shadow="0">
      <root>
        <mxCell id="0" />
        <mxCell id="1" parent="0" />
        <mxCell id="a3NKr-S5rIMRDyzBwzuS-1" value="" style="whiteSpace=wrap;html=1;aspect=fixed;" vertex="1" parent="1">
          <mxGeometry x="160" y="120" width="480" height="480" as="geometry" />
        </mxCell>
        <mxCell id="a3NKr-S5rIMRDyzBwzuS-15" style="edgeStyle=orthogonalEdgeStyle;rounded=0;orthogonalLoop=1;jettySize=auto;html=1;entryX=0;entryY=0;entryDx=0;entryDy=0;" edge="1" parent="1" source="a3NKr-S5rIMRDyzBwzuS-2" target="a3NKr-S5rIMRDyzBwzuS-7">
          <mxGeometry relative="1" as="geometry" />
        </mxCell>
        <mxCell id="a3NKr-S5rIMRDyzBwzuS-20" style="edgeStyle=orthogonalEdgeStyle;rounded=0;orthogonalLoop=1;jettySize=auto;html=1;exitX=1;exitY=0.3333333333333333;exitDx=0;exitDy=0;exitPerimeter=0;entryX=0;entryY=0;entryDx=0;entryDy=0;" edge="1" parent="1" source="a3NKr-S5rIMRDyzBwzuS-2" target="a3NKr-S5rIMRDyzBwzuS-10">
          <mxGeometry relative="1" as="geometry">
            <Array as="points">
              <mxPoint x="120" y="180" />
              <mxPoint x="372" y="180" />
            </Array>
          </mxGeometry>
        </mxCell>
        <mxCell id="a3NKr-S5rIMRDyzBwzuS-2" value="Paciente" style="shape=umlActor;verticalLabelPosition=bottom;verticalAlign=top;html=1;outlineConnect=0;" vertex="1" parent="1">
          <mxGeometry x="90" y="120" width="30" height="60" as="geometry" />
        </mxCell>
        <mxCell id="a3NKr-S5rIMRDyzBwzuS-16" style="edgeStyle=orthogonalEdgeStyle;rounded=0;orthogonalLoop=1;jettySize=auto;html=1;entryX=0;entryY=0.5;entryDx=0;entryDy=0;" edge="1" parent="1" source="a3NKr-S5rIMRDyzBwzuS-4" target="a3NKr-S5rIMRDyzBwzuS-7">
          <mxGeometry relative="1" as="geometry" />
        </mxCell>
        <mxCell id="a3NKr-S5rIMRDyzBwzuS-22" style="edgeStyle=orthogonalEdgeStyle;rounded=0;orthogonalLoop=1;jettySize=auto;html=1;exitX=1;exitY=0.3333333333333333;exitDx=0;exitDy=0;exitPerimeter=0;entryX=0;entryY=0.5;entryDx=0;entryDy=0;" edge="1" parent="1" source="a3NKr-S5rIMRDyzBwzuS-4" target="a3NKr-S5rIMRDyzBwzuS-10">
          <mxGeometry relative="1" as="geometry">
            <Array as="points">
              <mxPoint x="250" y="310" />
              <mxPoint x="250" y="230" />
            </Array>
          </mxGeometry>
        </mxCell>
        <mxCell id="a3NKr-S5rIMRDyzBwzuS-4" value="Especialista" style="shape=umlActor;verticalLabelPosition=bottom;verticalAlign=top;html=1;outlineConnect=0;" vertex="1" parent="1">
          <mxGeometry x="90" y="290" width="30" height="60" as="geometry" />
        </mxCell>
        <mxCell id="a3NKr-S5rIMRDyzBwzuS-5" value="Tutor" style="shape=umlActor;verticalLabelPosition=bottom;verticalAlign=top;html=1;outlineConnect=0;" vertex="1" parent="1">
          <mxGeometry x="680" y="120" width="30" height="60" as="geometry" />
        </mxCell>
        <mxCell id="a3NKr-S5rIMRDyzBwzuS-23" style="edgeStyle=orthogonalEdgeStyle;rounded=0;orthogonalLoop=1;jettySize=auto;html=1;exitX=0;exitY=0.3333333333333333;exitDx=0;exitDy=0;exitPerimeter=0;entryX=1;entryY=0.5;entryDx=0;entryDy=0;" edge="1" parent="1" source="a3NKr-S5rIMRDyzBwzuS-6" target="a3NKr-S5rIMRDyzBwzuS-10">
          <mxGeometry relative="1" as="geometry" />
        </mxCell>
        <mxCell id="a3NKr-S5rIMRDyzBwzuS-25" style="edgeStyle=orthogonalEdgeStyle;rounded=0;orthogonalLoop=1;jettySize=auto;html=1;exitX=0;exitY=0.3333333333333333;exitDx=0;exitDy=0;exitPerimeter=0;entryX=1;entryY=0.5;entryDx=0;entryDy=0;" edge="1" parent="1" source="a3NKr-S5rIMRDyzBwzuS-6" target="a3NKr-S5rIMRDyzBwzuS-7">
          <mxGeometry relative="1" as="geometry">
            <Array as="points">
              <mxPoint x="680" y="320" />
              <mxPoint x="610" y="320" />
              <mxPoint x="610" y="160" />
            </Array>
          </mxGeometry>
        </mxCell>
        <mxCell id="a3NKr-S5rIMRDyzBwzuS-6" value="administrador" style="shape=umlActor;verticalLabelPosition=bottom;verticalAlign=top;html=1;outlineConnect=0;" vertex="1" parent="1">
          <mxGeometry x="680" y="310" width="30" height="60" as="geometry" />
        </mxCell>
        <mxCell id="a3NKr-S5rIMRDyzBwzuS-7" value="Registrar usuario" style="ellipse;whiteSpace=wrap;html=1;" vertex="1" parent="1">
          <mxGeometry x="354" y="140" width="120" height="40" as="geometry" />
        </mxCell>
        <mxCell id="a3NKr-S5rIMRDyzBwzuS-8" value="Login" style="text;html=1;align=center;verticalAlign=middle;whiteSpace=wrap;rounded=0;" vertex="1" parent="1">
          <mxGeometry x="384" y="90" width="60" height="30" as="geometry" />
        </mxCell>
        <mxCell id="a3NKr-S5rIMRDyzBwzuS-9" value="Ingresar datos personales" style="ellipse;whiteSpace=wrap;html=1;" vertex="1" parent="1">
          <mxGeometry x="354" y="270" width="120" height="40" as="geometry" />
        </mxCell>
        <mxCell id="a3NKr-S5rIMRDyzBwzuS-10" value="Ingresar correo" style="ellipse;whiteSpace=wrap;html=1;" vertex="1" parent="1">
          <mxGeometry x="354" y="210" width="120" height="40" as="geometry" />
        </mxCell>
        <mxCell id="a3NKr-S5rIMRDyzBwzuS-11" value="Elegir tipo de usuario" style="ellipse;whiteSpace=wrap;html=1;" vertex="1" parent="1">
          <mxGeometry x="354" y="330" width="120" height="40" as="geometry" />
        </mxCell>
        <mxCell id="a3NKr-S5rIMRDyzBwzuS-12" value="Recuperar contraseña" style="ellipse;whiteSpace=wrap;html=1;" vertex="1" parent="1">
          <mxGeometry x="354" y="390" width="120" height="40" as="geometry" />
        </mxCell>
        <mxCell id="a3NKr-S5rIMRDyzBwzuS-13" value="Enviar correo o mensaje&lt;span style=&quot;color: rgba(0, 0, 0, 0); font-family: monospace; font-size: 0px; text-align: start; text-wrap: nowrap;&quot;&gt;%3CmxGraphModel%3E%3Croot%3E%3CmxCell%20id%3D%220%22%2F%3E%3CmxCell%20id%3D%221%22%20parent%3D%220%22%2F%3E%3CmxCell%20id%3D%222%22%20value%3D%22Registrar%20usuario%22%20style%3D%22ellipse%3BwhiteSpace%3Dwrap%3Bhtml%3D1%3B%22%20vertex%3D%221%22%20parent%3D%221%22%3E%3CmxGeometry%20x%3D%22354%22%20y%3D%22140%22%20width%3D%22120%22%20height%3D%2240%22%20as%3D%22geometry%22%2F%3E%3C%2FmxCell%3E%3C%2Froot%3E%3C%2FmxGraphModel%3E&lt;/span&gt;" style="ellipse;whiteSpace=wrap;html=1;" vertex="1" parent="1">
          <mxGeometry x="354" y="460" width="120" height="40" as="geometry" />
        </mxCell>
        <mxCell id="a3NKr-S5rIMRDyzBwzuS-14" value="Ingresar codigo de verificación" style="ellipse;whiteSpace=wrap;html=1;" vertex="1" parent="1">
          <mxGeometry x="354" y="540" width="120" height="40" as="geometry" />
        </mxCell>
        <mxCell id="a3NKr-S5rIMRDyzBwzuS-17" style="edgeStyle=orthogonalEdgeStyle;rounded=0;orthogonalLoop=1;jettySize=auto;html=1;exitX=0;exitY=0.3333333333333333;exitDx=0;exitDy=0;exitPerimeter=0;entryX=0.964;entryY=0.332;entryDx=0;entryDy=0;entryPerimeter=0;" edge="1" parent="1" source="a3NKr-S5rIMRDyzBwzuS-5" target="a3NKr-S5rIMRDyzBwzuS-7">
          <mxGeometry relative="1" as="geometry" />
        </mxCell>
        <mxCell id="a3NKr-S5rIMRDyzBwzuS-21" style="edgeStyle=orthogonalEdgeStyle;rounded=0;orthogonalLoop=1;jettySize=auto;html=1;exitX=0;exitY=0.3333333333333333;exitDx=0;exitDy=0;exitPerimeter=0;entryX=0.974;entryY=0.425;entryDx=0;entryDy=0;entryPerimeter=0;" edge="1" parent="1" source="a3NKr-S5rIMRDyzBwzuS-5" target="a3NKr-S5rIMRDyzBwzuS-10">
          <mxGeometry relative="1" as="geometry">
            <Array as="points">
              <mxPoint x="680" y="180" />
              <mxPoint x="471" y="180" />
            </Array>
          </mxGeometry>
        </mxCell>
      </root>
    </mxGraphModel>
  </diagram>
</mxfile>
